<svg width="700" height="170" xmlns="http://www.w3.org/2000/svg">

 <g>
  <title>Layer 1</title>
  <text font-style="italic" transform="matrix(3.468 0 0 3.15397 -553.419 -632.473)" stroke="#000" font-weight="bold" xml:space="preserve" text-anchor="start" font-family="'Antonio'" font-size="24" id="svg_3" y="236.70972" x="166.04183" stroke-width="0" fill="#000000">ASEDelivery</text>
  <path id="svg_6" d="m421.91557,156.69983c-18.73225,-6.59786 -24.95604,-26.18643 -25.18498,-42.52059c-2.5384,-12.09432 13.4223,-20.98975 8.16786,-33.42569c-1.99396,-18.38431 4.27289,-36.59339 13.63745,-52.79348c0.29614,-10.40866 9.92131,-14.44855 20.40816,-13.85607c33.883,-3.81857 68.37837,-3.92562 102.27423,-0.31793c20.22799,3.3324 36.34835,15.64323 53.45495,24.94175c10.61087,6.9922 22.99826,11.59869 33.671,18.31919c11.52679,8.60077 22.35601,18.19435 30.34337,29.6036c2.87382,11.40559 6.73141,22.74546 8.7064,34.22641c4.00932,10.74337 -4.19817,17.50096 -10.40686,24.96465c-9.42916,10.17742 -27.27274,14.19324 -40.77666,8.72854c-9.37926,-3.03925 -12.83129,-15.95245 -23.52439,-15.05977c-40.31473,-0.53395 -80.62947,-1.06789 -120.94421,-1.6018c-9.3395,10.88513 -22.25214,22.78122 -39.13654,21.08719c-3.66873,-0.27262 -7.27551,-1.08285 -10.68979,-2.29601l0.00002,0z" stroke-width="0" stroke="#000" fill="#000000"/>
 </g>
</svg>